<?xml version="1.0" encoding="UTF-8"?><svg id="uuid-51babfd5-d937-43a6-b97e-80f46dfabfd4" xmlns="http://www.w3.org/2000/svg" viewBox="0 0 641.02 178.73"><path d="M180.61,47.21c1.2,5.37,3.15,9.8,5.81,13.3,2.66,3.51,5.77,6.21,9.32,8.13,3.55,1.92,7.43,3.11,11.67,3.57,4.24.46,8.61.31,13.14-.45.46-.08.69-.12,1.15-.19,2.83-.47,5.83-1.19,9.01-2.14,3.18-.96,6.11-2.03,8.79-3.23.25-8.85.4-13.27.76-22.13-.19-.01-.28-.02-.47-.03-1.7,3.74-4.18,6.84-7.45,9.31-3.26,2.47-7.52,4.12-12.82,4.99-2.35.39-4.68.41-7.01.07-2.33-.34-4.47-1.11-6.45-2.3-1.97-1.2-3.7-2.84-5.18-4.93-1.48-2.09-2.53-4.71-3.15-7.84-.61-3.14-.62-5.97,0-8.5.61-2.53,1.67-4.7,3.16-6.52,1.49-1.81,3.33-3.29,5.52-4.43,2.19-1.14,4.53-1.92,7.02-2.33,3.57-.59,7.19-.46,10.83.41,3.64.86,6.86,2.55,9.64,5.03.18-.1.27-.14.45-.24-.78-3.42-1.49-6.83-2.12-10.24-.63-3.41-1.34-6.82-2.14-10.23-.21-.04-.31-.07-.51-.11-.66.51-1.46.86-2.39,1.05-.93.19-1.89.36-2.86.5-.98.14-2.52.13-4.64-.02-2.12-.15-4.94.05-8.45.63-.51.08-.76.13-1.27.21-5,.84-9.6,2.3-13.76,4.35-4.16,2.05-7.62,4.71-10.35,7.93-2.73,3.22-4.61,7.02-5.63,11.36-1.02,4.34-.91,9.2.29,14.57.04.17.06.26.1.43Z"/><path d="M314.15,45.73c1.78-4.02,2.66-8.78,2.6-14.28,0-.18,0-.27,0-.44-.06-5.5-1.05-10.26-3.03-14.25-1.98-3.99-4.66-7.26-8.03-9.78-3.38-2.52-7.33-4.31-11.83-5.36-4.5-1.05-9.26-1.42-14.25-1.1-.51.03-.77.05-1.28.08-5.05.33-9.75,1.32-14.09,2.95-4.33,1.62-8.02,3.92-11.05,6.85-3.03,2.93-5.26,6.52-6.71,10.74-1.45,4.22-1.81,9.06-1.16,14.53.02.18.03.26.05.44.66,5.46,2.15,10.06,4.44,13.82,2.29,3.76,5.1,6.76,8.43,9.03,3.33,2.27,7.06,3.84,11.22,4.72,4.16.89,8.5,1.17,13.08.87.46-.03.7-.05,1.16-.08,4.52-.29,8.76-1.14,12.76-2.55,4-1.42,7.5-3.45,10.5-6.14,3-2.68,5.4-6.03,7.17-10.05ZM298.33,39.23c-.75,2.31-1.84,4.32-3.26,6.04-1.43,1.72-3.17,3.08-5.22,4.08-2.05,1-4.38,1.58-6.99,1.74-.47.03-.71.05-1.18.08-2.61.17-5.01-.1-7.2-.82-2.2-.72-4.11-1.84-5.75-3.36-1.64-1.52-2.98-3.38-4.02-5.57-1.04-2.19-1.69-4.67-1.95-7.44-.25-2.71-.06-5.25.58-7.63.64-2.38,1.67-4.44,3.09-6.2,1.42-1.75,3.22-3.18,5.39-4.27,2.17-1.09,4.65-1.73,7.41-1.91.5-.03.75-.05,1.25-.08,2.76-.18,5.28.14,7.55.94,2.26.8,4.21,1.98,5.85,3.54,1.64,1.56,2.92,3.47,3.87,5.75.94,2.27,1.46,4.77,1.56,7.49.1,2.78-.22,5.32-.97,7.63Z"/><path d="M386.64,9.66c-3.06-2.9-6.77-5.15-11.12-6.73-4.35-1.58-9.03-2.51-14.02-2.79-.51-.03-.77-.04-1.28-.07-5.05-.27-9.84.15-14.33,1.25-4.49,1.1-8.42,2.94-11.77,5.49-3.35,2.55-5.99,5.85-7.92,9.87-1.93,4.02-2.87,8.78-2.87,14.29,0,.18,0,.27,0,.44,0,5.5.94,10.25,2.76,14.25,1.82,4,4.25,7.32,7.28,9.97,3.03,2.65,6.55,4.65,10.57,6.02,4.02,1.37,8.3,2.17,12.88,2.42.46.02.7.04,1.16.06,4.52.25,8.83-.09,12.98-1.02,4.15-.93,7.86-2.54,11.16-4.85,3.3-2.31,6.08-5.34,8.33-9.12,2.24-3.78,3.69-8.4,4.29-13.87.02-.18.03-.26.05-.44.6-5.47.17-10.31-1.32-14.51-1.49-4.2-3.76-7.76-6.82-10.66ZM377.36,33.35c-.23,2.77-.86,5.26-1.87,7.46-1.02,2.21-2.34,4.07-3.96,5.61-1.62,1.54-3.51,2.68-5.67,3.43-2.16.75-4.54,1.04-7.15.9-.47-.03-.71-.04-1.18-.06-2.61-.14-4.96-.69-7.05-1.67-2.09-.98-3.86-2.31-5.31-4.02-1.45-1.71-2.55-3.71-3.33-6.01-.77-2.3-1.13-4.84-1.05-7.62.07-2.72.56-5.22,1.48-7.51.92-2.28,2.19-4.21,3.8-5.79,1.62-1.57,3.57-2.78,5.86-3.6,2.29-.82,4.82-1.16,7.58-1.02.5.03.75.04,1.25.07,2.76.15,5.23.77,7.38,1.83,2.15,1.06,3.95,2.47,5.39,4.21,1.44,1.74,2.49,3.8,3.16,6.17.67,2.37.88,4.91.66,7.62Z"/><path d="M443.23,11.02c.21.34.38.7.51,1.08.13.38.14.9.03,1.54-.09.52-.4,1.13-.92,1.82-.52.69-1.14,1.36-1.85,2.02-.71.66-1.41,1.3-2.12,1.93-.7.63-1.28,1.15-1.74,1.55-5.91,4.61-8.81,6.95-14.52,11.69.37-2.42.55-3.63.92-6.06.64-4.21,1.44-7.92,2.42-11.12.98-3.2,2.36-5.42,4.15-6.63.03-.18.04-.26.07-.44-10.06-1.58-15.09-2.27-25.19-3.48-.02.18-.03.26-.05.44,1.39,1.66,2.12,4.16,2.2,7.51.08,3.35-.16,7.14-.68,11.36l-2.99,23.96c-.53,4.23-1.23,7.96-2.08,11.19-.86,3.23-2.09,5.5-3.69,6.79-.02.18-.03.26-.05.44,9.18,1.09,13.76,1.73,22.91,3.16.03-.18.04-.26.07-.44-1.1-1.49-1.67-3.64-1.69-6.46-.03-2.82.17-6.05.6-9.7,2.86-2.44,4.31-3.65,7.22-6.06,2.61,5.78,3.88,8.68,6.35,14.48.95,2.33,1.95,4.31,3,5.94,1.05,1.63,2.23,3.01,3.55,4.13,1.32,1.12,2.77,2.02,4.38,2.7,1.61.68,3.46,1.23,5.57,1.66,1.64.34,3.42.45,5.34.35,1.92-.1,3.79-.64,5.62-1.63.04-.17.06-.26.1-.43-1.18-.51-2.28-1.42-3.29-2.73-1.01-1.31-1.98-2.86-2.91-4.66-.93-1.8-1.84-3.77-2.74-5.92-.91-2.15-1.83-4.37-2.76-6.67-3.04-7.55-4.63-11.32-7.91-18.84,8.55-6.69,12.93-9.96,21.88-16.36.86-.6,1.76-1.19,2.68-1.75.92-.56,1.83-1.05,2.73-1.46.04-.17.06-.26.09-.43-10.01-2.16-15.04-3.14-25.11-4.92-.03.17-.05.26-.08.44Z"/><path d="M127.25,95.6c.02.2.03.3.05.51.79.81,1.35,1.81,1.68,3,.33,1.19.51,2.5.55,3.93.03,1.43-.05,2.87-.26,4.32-.21,1.45-.43,2.84-.65,4.15-1.95,9.8-2.9,14.7-4.77,24.51-3.81-9.06-5.73-13.58-9.61-22.62-.49-1.24-.98-2.59-1.49-4.03-.51-1.44-.91-2.87-1.2-4.27-.29-1.4-.4-2.75-.33-4.06.07-1.3.41-2.43,1.02-3.38-.02-.2-.03-.3-.05-.51-10.88,1.16-16.31,1.78-27.17,3.08.02.2.04.3.06.51,1.04.97,1.73,2.24,2.06,3.8.33,1.56.46,3.22.38,4.97-.07,1.75-.25,3.5-.54,5.24-.28,1.74-.53,3.24-.73,4.49,0-.04,0-.06-.01-.1-1.54,8.63-2.29,12.94-3.77,21.57-4.03-9.13-6.06-13.7-10.15-22.81-.51-1.23-1.03-2.53-1.56-3.9-.53-1.37-.94-2.75-1.23-4.15-.29-1.4-.4-2.72-.35-3.95.05-1.24.37-2.34.96-3.3-.03-.2-.04-.3-.06-.5-11.02,1.41-16.53,2.16-27.54,3.72.03.2.04.3.07.5,2.28,1.46,4.43,3.71,6.46,6.74,2.02,3.04,3.9,6.46,5.62,10.26,7.62,16.49,15.15,33.03,22.51,49.64,7.02-.91,10.53-1.34,17.55-2.19,2.36-13.88,4.79-27.75,7.31-41.61,5.6,12.93,11.11,25.9,16.55,38.9,7.03-.75,10.55-1.11,17.59-1.8,3.47-17.83,7.05-35.64,10.8-53.42.83-4.09,1.88-7.84,3.17-11.26,1.29-3.41,2.88-6.09,4.77-8.02-.02-.2-.03-.3-.04-.51-11.06.94-16.59,1.45-27.64,2.54Z"/><path d="M225.69,143.44c-1.62-2.94-3.01-5.71-4.17-8.32-6.91-14.85-13.91-29.65-21.01-44.41-8.63.53-12.94.82-21.56,1.45.01.18.02.27.03.44.33.33.66.78.98,1.35.32.57.51,1.36.59,2.36.02.24-.03.73-.12,1.48-.1.75-.4,1.91-.9,3.49-4.07,12.44-8.05,24.91-11.94,37.41-.81,2.74-1.82,5.67-3.04,8.8-1.22,3.13-2.69,5.8-4.42,8.03.02.18.02.27.04.44,9.38-.8,14.08-1.17,23.47-1.85-.01-.18-.02-.27-.03-.44-.32-.33-.64-.8-.95-1.4-.31-.6-.51-1.43-.59-2.49-.06-.77-.02-1.63.13-2.59.14-.96.4-2.13.78-3.53.03-.07.05-.11.08-.18,8.97-1.75,13.46-2.61,22.46-4.26.54,1.14.81,1.71,1.35,2.85.62,1.27,1.06,2.38,1.33,3.34.27.96.42,1.83.47,2.6.06,1.06-.02,1.91-.25,2.55-.23.64-.49,1.14-.76,1.51.01.18.02.27.03.44,9.4-.57,14.1-.82,23.5-1.27,0-.18-.01-.27-.02-.44-2.01-1.98-3.82-4.44-5.44-7.38ZM187.05,131.19c2.32-7.28,3.5-10.92,5.87-18.19,3.05,6.24,4.57,9.36,7.57,15.61-5.38,1.02-8.07,1.53-13.44,2.58Z"/><path d="M292.31,144.33c-1.27-1.04-2.55-2.34-3.84-3.88-1.28-1.54-2.59-3.27-3.92-5.16-1.33-1.9-2.68-3.86-4.05-5.91-.41-.63-.62-.94-1.03-1.57,3.4-1.73,6.14-4.13,8.24-7.18,2.09-3.06,3.1-7.07,3.02-12.04-.05-3.08-.68-5.92-1.89-8.53-1.21-2.61-3.06-4.84-5.55-6.69-2.49-1.84-5.67-3.25-9.54-4.22-3.87-.97-8.45-1.38-13.74-1.21-11.26.36-16.89.58-28.14,1.1,0,.18.01.27.02.44,1.54,1.41,2.62,3.76,3.23,7.05.61,3.29,1,7.06,1.19,11.32.43,9.65.64,14.47,1.07,24.12.19,4.26.13,8.05-.17,11.38-.3,3.33-1.13,5.77-2.5,7.31,0,.18.01.27.02.44,9.22-.42,13.83-.61,23.06-.92,0-.18,0-.27-.02-.44-1.42-1.31-2.4-3.44-2.96-6.38-.55-2.94-.93-6.33-1.13-10.17,1.38-.11,2.73-.22,4.05-.32,1.32-.1,2.67-.24,4.05-.4,2.01,2.92,3.01,4.38,5,7.31,1.38,2.09,2.75,3.83,4.1,5.21,1.35,1.38,2.79,2.49,4.3,3.31,1.51.82,3.12,1.39,4.83,1.7,1.71.32,3.6.45,5.69.41,1.91-.04,3.78-.37,5.62-.99,1.84-.62,3.43-1.53,4.79-2.74,0-.18,0-.27,0-.44-1.26-.22-2.52-.85-3.79-1.9ZM271.99,115.28c-1.18,1.45-2.74,2.62-4.68,3.5-1.95.89-4.15,1.53-6.62,1.93-2.47.4-4.94.68-7.42.83-.29-8.09-.44-12.13-.73-20.22,2.6-.09,3.9-.14,6.51-.22,4.58-.15,8.15.5,10.7,1.94,2.54,1.44,3.85,3.64,3.92,6.6.06,2.31-.5,4.19-1.68,5.64Z"/><path d="M354.06,140.36c-1.23-1.59-2.48-3.35-3.75-5.29-1.26-1.94-2.55-3.95-3.85-6.04-.39-.64-.58-.97-.98-1.61,3.46-1.62,6.28-3.92,8.47-6.9,2.19-2.98,3.34-6.96,3.43-11.93.05-3.08-.48-5.94-1.6-8.59-1.12-2.65-2.89-4.94-5.32-6.87-2.43-1.93-5.56-3.44-9.39-4.54-3.83-1.1-8.4-1.66-13.69-1.67-11.26-.02-16.89,0-28.15.15,0,.18,0,.27,0,.44,1.49,1.46,2.49,3.85,2.98,7.16.5,3.31.76,7.09.81,11.35.1,9.66.15,14.48.25,24.14.04,4.26-.14,8.05-.55,11.37-.41,3.32-1.33,5.73-2.74,7.22,0,.18,0,.27,0,.44,9.23-.11,13.84-.14,23.07-.14v-.44c-1.37-1.36-2.29-3.52-2.74-6.48-.45-2.96-.72-6.36-.78-10.21,1.38-.06,2.74-.12,4.06-.18,1.32-.06,2.68-.15,4.06-.26,1.91,2.99,2.86,4.48,4.75,7.47,1.31,2.14,2.62,3.92,3.92,5.35,1.31,1.43,2.7,2.58,4.18,3.45,1.48.87,3.07,1.49,4.77,1.87,1.7.37,3.58.57,5.67.6,1.91.03,3.79-.24,5.65-.8,1.86-.56,3.48-1.42,4.88-2.57,0-.18,0-.27,0-.44-1.25-.26-2.49-.94-3.73-2.02-1.24-1.09-2.47-2.42-3.7-4.01ZM338.43,114.66c-1.23,1.41-2.82,2.52-4.8,3.34-1.97.82-4.2,1.39-6.68,1.71-2.48.32-4.96.52-7.44.58-.02-8.09-.03-12.14-.04-20.24,2.6,0,3.91,0,6.51,0,4.59,0,8.13.78,10.62,2.3,2.49,1.53,3.72,3.77,3.7,6.73-.02,2.31-.64,4.17-1.87,5.58Z"/><path d="M366.6,87.82c1.44,1.51,2.36,3.93,2.74,7.25.38,3.32.52,7.11.42,11.37-.23,9.65-.34,14.48-.56,24.14-.1,4.26-.41,8.04-.94,11.34-.52,3.3-1.52,5.68-2.98,7.13,0,.18,0,.27,0,.44,9.23.2,13.84.33,23.07.63,0-.18,0-.27.01-.44-1.38-1.53-2.24-3.95-2.59-7.28-.34-3.33-.45-7.12-.31-11.38.31-9.65.46-14.48.76-24.13.14-4.26.48-8.04,1.05-11.33.57-3.3,1.61-5.66,3.14-7.09,0-.18,0-.27.01-.44-9.52-.32-14.28-.45-23.81-.66,0,.18,0,.27,0,.44Z"/><path d="M456.47,98.01c-2.95-2.81-6.48-4.96-10.58-6.46-4.1-1.5-8.49-2.38-13.17-2.63-.48-.03-.72-.04-1.2-.07-4.74-.26-9.23.14-13.47,1.18-4.24,1.04-7.98,2.8-11.21,5.27-3.23,2.47-5.84,5.69-7.83,9.64-1.98,3.95-3.07,8.68-3.27,14.18,0,.18,0,.27-.02.44-.2,5.5.53,10.28,2.18,14.34,1.65,4.06,3.95,7.45,6.89,10.18,2.94,2.73,6.4,4.81,10.4,6.24,3.99,1.43,8.28,2.27,12.86,2.52.46.03.7.04,1.16.06,4.52.25,8.84-.12,12.97-1.11,4.13-.99,7.8-2.68,11.02-5.07,3.22-2.39,5.87-5.52,7.95-9.37,2.08-3.86,3.33-8.53,3.73-14.02.01-.18.02-.27.03-.44.4-5.49-.17-10.31-1.71-14.45-1.54-4.14-3.79-7.62-6.74-10.43ZM448.03,121.92c-.18,2.78-.74,5.28-1.7,7.5-.96,2.22-2.22,4.12-3.8,5.68-1.57,1.56-3.42,2.73-5.54,3.49-2.12.77-4.47,1.08-7.04.94-.47-.03-.7-.04-1.17-.06-2.58-.14-4.89-.7-6.95-1.7-2.06-.99-3.78-2.35-5.17-4.08-1.39-1.72-2.45-3.74-3.16-6.06-.71-2.31-1-4.86-.88-7.64.12-2.72.65-5.21,1.57-7.48.93-2.27,2.17-4.18,3.75-5.73,1.57-1.55,3.45-2.74,5.63-3.54,2.18-.81,4.59-1.14,7.22-1,.48.03.71.04,1.19.06,2.63.14,4.97.74,7.02,1.78,2.05,1.04,3.78,2.42,5.17,4.13,1.39,1.72,2.43,3.75,3.1,6.11.68,2.35.92,4.89.75,7.61Z"/><path d="M523.6,150.45c-1.09-1.69-2.18-3.56-3.27-5.6-1.09-2.04-2.2-4.16-3.31-6.35-.33-.68-.5-1.01-.83-1.69,3.59-1.31,6.6-3.35,9.06-6.13,2.45-2.78,3.94-6.64,4.46-11.58.32-3.06.04-5.96-.84-8.7-.88-2.74-2.45-5.18-4.71-7.31s-5.25-3.92-8.97-5.35c-3.73-1.43-8.23-2.39-13.51-2.86-11.23-1.01-16.84-1.47-28.08-2.32-.01.18-.02.27-.03.44,1.36,1.59,2.15,4.05,2.35,7.39.2,3.34.14,7.13-.19,11.38-.74,9.63-1.12,14.44-1.86,24.07-.33,4.25-.84,8.01-1.55,11.28-.7,3.27-1.82,5.59-3.36,6.95-.01.18-.02.27-.03.44,9.21.69,13.81,1.07,23.02,1.87.02-.18.02-.27.04-.44-1.25-1.48-1.97-3.7-2.16-6.69-.19-2.99-.16-6.4.11-10.24,1.38.06,2.74.12,4.06.17,1.32.06,2.68.09,4.07.09,1.64,3.14,2.46,4.71,4.08,7.86,1.12,2.24,2.27,4.13,3.44,5.67,1.18,1.54,2.47,2.81,3.87,3.8,1.4,1,2.93,1.76,4.59,2.28,1.66.52,3.52.89,5.6,1.1,1.9.19,3.8.09,5.7-.3,1.9-.39,3.6-1.11,5.09-2.14.02-.18.03-.26.05-.44-1.22-.37-2.4-1.15-3.54-2.34-1.14-1.19-2.25-2.63-3.34-4.32ZM512.62,118.09c-.22,2.3-1.01,4.1-2.35,5.39-1.34,1.3-3.04,2.27-5.08,2.91-2.04.64-4.31,1.01-6.81,1.12-2.5.1-4.99.08-7.47-.07.69-8.07,1.04-12.1,1.73-20.16,2.6.22,3.9.34,6.49.57,4.57.41,8.04,1.49,10.39,3.23,2.35,1.74,3.38,4.08,3.1,7.03Z"/><path d="M564.74,115.84c1.99-.45,4.42-.49,7.31-.13,2.18.28,4.53.8,7.05,1.58,2.51.78,4.91,1.73,7.19,2.87,2.28,1.14,4.36,2.42,6.24,3.86,1.88,1.44,3.31,2.95,4.3,4.54.18-.06.27-.09.45-.15.21-4.06.42-8.08.61-12.07.2-3.99.4-8.01.6-12.07-.21-.07-.31-.11-.52-.18-.85.37-1.79.51-2.82.44-1.04-.07-2.09-.18-3.15-.33-.92-.12-2.05-.36-3.37-.71-1.32-.35-2.77-.72-4.35-1.1-1.57-.38-3.24-.77-4.99-1.17-1.75-.4-3.48-.71-5.19-.92-3.34-.42-6.8-.61-10.37-.56-3.57.05-6.92.62-10.03,1.71-3.11,1.09-5.76,2.9-7.94,5.41-2.18,2.52-3.52,6.03-4.02,10.53-.05.41-.07.61-.11,1.02-.35,3.14-.12,5.91.67,8.31.79,2.4,1.99,4.52,3.58,6.36,1.59,1.84,3.53,3.46,5.8,4.87,2.27,1.41,4.75,2.69,7.43,3.84,2.68,1.15,5.21,2.23,7.59,3.22,2.38.99,4.46,1.98,6.23,2.97,1.77.99,3.14,2.02,4.09,3.07.95,1.06,1.34,2.24,1.17,3.53-.03.2-.04.31-.07.51-.23,1.77-1.19,2.92-2.88,3.46-1.68.54-3.73.66-6.14.35-3.31-.42-6.55-1.19-9.74-2.31-3.19-1.12-6.15-2.44-8.88-3.97-2.73-1.53-5.13-3.21-7.2-5.03-2.07-1.82-3.68-3.63-4.82-5.41-.21.02-.32.03-.53.04-.03,10.56-.05,15.84-.11,26.39.2.06.3.1.5.16.61-.48,1.37-.81,2.3-.98.92-.17,1.8-.21,2.62-.12,1.1.13,2.31.46,3.64.99,1.33.53,2.89,1.15,4.68,1.85,1.79.7,3.86,1.38,6.21,2.05,2.35.67,5.13,1.2,8.34,1.61,3.56.45,7.07.58,10.54.38,3.47-.2,6.65-.93,9.54-2.19,2.89-1.26,5.36-3.15,7.39-5.67,2.04-2.52,3.36-5.88,3.96-10.09.06-.41.09-.61.15-1.02.62-4.35.27-8-1.04-10.96-1.32-2.96-3.2-5.47-5.65-7.54-2.45-2.07-5.24-3.81-8.36-5.23-3.12-1.42-6.16-2.77-9.13-4.04-1.69-.7-3.3-1.37-4.82-2.01-1.52-.64-2.83-1.29-3.93-1.94-1.09-.65-1.95-1.36-2.57-2.13-.62-.77-.86-1.69-.73-2.78.2-1.63,1.29-2.68,3.28-3.13Z"/><polygon points="597.52 84.13 602.81 84.13 602.81 98.91 607.45 98.91 607.45 84.13 612.71 84.13 612.71 80.28 597.52 80.28 597.52 84.13"/><path d="M627.7,80.28l-2.01,8.3c-.09.45-.19.93-.3,1.44s-.21.99-.31,1.45-.18.85-.23,1.18h-.22c-.09-.42-.19-.88-.3-1.4-.11-.52-.22-1.01-.33-1.49-.11-.48-.2-.87-.27-1.18l-2.01-8.3h-6.64v18.63h4.23v-8.03c0-.6,0-1.23-.01-1.9,0-.67-.02-1.31-.04-1.92-.02-.61-.04-1.14-.05-1.57h.19c.09.33.18.71.27,1.17.09.45.19.89.29,1.32.1.42.18.79.26,1.1l2.47,9.84h3.69l2.44-9.84c.09-.34.19-.75.3-1.21s.21-.91.31-1.36c.1-.44.17-.79.2-1.04h.22c0,.29,0,.72-.03,1.3-.02.58-.04,1.23-.05,1.95-.02.72-.03,1.45-.03,2.17v8.03h4.45v-18.63h-6.48Z"/></svg>